<mxfile host="app.diagrams.net" modified="2023-06-18T22:06:05.691Z" agent="Mozilla/5.0 (Windows NT 10.0; Win64; x64) AppleWebKit/537.36 (KHTML, like Gecko) Chrome/114.0.0.0 Safari/537.36" etag="zHPrdkEkFHGiMFDlTtkr" version="21.5.0" type="google">
  <diagram name="Página-1" id="C48mjKLonAUnGuTGDxub">
    <mxGraphModel grid="1" page="1" gridSize="10" guides="1" tooltips="1" connect="1" arrows="1" fold="1" pageScale="1" pageWidth="827" pageHeight="1169" math="0" shadow="0">
      <root>
        <mxCell id="0" />
        <mxCell id="1" parent="0" />
        <mxCell id="yS0SOiaStTAIh2akFQd7-3" value="" style="edgeStyle=orthogonalEdgeStyle;rounded=0;orthogonalLoop=1;jettySize=auto;html=1;" edge="1" parent="1" source="yS0SOiaStTAIh2akFQd7-1">
          <mxGeometry relative="1" as="geometry">
            <mxPoint x="390" y="220" as="targetPoint" />
          </mxGeometry>
        </mxCell>
        <mxCell id="yS0SOiaStTAIh2akFQd7-1" value="Calculadora clásica" style="ellipse;whiteSpace=wrap;html=1;" vertex="1" parent="1">
          <mxGeometry x="330" y="100" width="120" height="80" as="geometry" />
        </mxCell>
        <mxCell id="yS0SOiaStTAIh2akFQd7-6" value="" style="edgeStyle=orthogonalEdgeStyle;rounded=0;orthogonalLoop=1;jettySize=auto;html=1;" edge="1" parent="1" source="yS0SOiaStTAIh2akFQd7-4" target="yS0SOiaStTAIh2akFQd7-5">
          <mxGeometry relative="1" as="geometry" />
        </mxCell>
        <mxCell id="yS0SOiaStTAIh2akFQd7-4" value="Input : &quot;Ingrese un número&quot;" style="rounded=1;whiteSpace=wrap;html=1;" vertex="1" parent="1">
          <mxGeometry x="330" y="220" width="120" height="60" as="geometry" />
        </mxCell>
        <mxCell id="yS0SOiaStTAIh2akFQd7-10" value="" style="edgeStyle=orthogonalEdgeStyle;rounded=0;orthogonalLoop=1;jettySize=auto;html=1;" edge="1" parent="1" source="yS0SOiaStTAIh2akFQd7-5" target="yS0SOiaStTAIh2akFQd7-9">
          <mxGeometry relative="1" as="geometry" />
        </mxCell>
        <mxCell id="yS0SOiaStTAIh2akFQd7-5" value="op = str(input(&quot;Ingresar operación:&amp;nbsp; &quot;)" style="whiteSpace=wrap;html=1;rounded=1;" vertex="1" parent="1">
          <mxGeometry x="280" y="330" width="220" height="60" as="geometry" />
        </mxCell>
        <mxCell id="yS0SOiaStTAIh2akFQd7-11" style="edgeStyle=orthogonalEdgeStyle;rounded=0;orthogonalLoop=1;jettySize=auto;html=1;entryX=0.5;entryY=0;entryDx=0;entryDy=0;" edge="1" parent="1" source="yS0SOiaStTAIh2akFQd7-9" target="yS0SOiaStTAIh2akFQd7-14">
          <mxGeometry relative="1" as="geometry">
            <mxPoint x="210" y="590" as="targetPoint" />
            <Array as="points">
              <mxPoint x="245" y="505" />
            </Array>
          </mxGeometry>
        </mxCell>
        <mxCell id="yS0SOiaStTAIh2akFQd7-13" style="edgeStyle=orthogonalEdgeStyle;rounded=0;orthogonalLoop=1;jettySize=auto;html=1;" edge="1" parent="1" source="yS0SOiaStTAIh2akFQd7-9">
          <mxGeometry relative="1" as="geometry">
            <mxPoint x="580" y="590" as="targetPoint" />
          </mxGeometry>
        </mxCell>
        <mxCell id="yS0SOiaStTAIh2akFQd7-9" value="While op != &quot;=&quot;" style="rhombus;whiteSpace=wrap;html=1;" vertex="1" parent="1">
          <mxGeometry x="320" y="440" width="140" height="130" as="geometry" />
        </mxCell>
        <mxCell id="GSZzZ93R67FNVeHR2V8e-13" style="edgeStyle=orthogonalEdgeStyle;rounded=0;orthogonalLoop=1;jettySize=auto;html=1;entryX=0;entryY=0.5;entryDx=0;entryDy=0;" edge="1" parent="1" source="yS0SOiaStTAIh2akFQd7-14" target="yS0SOiaStTAIh2akFQd7-5">
          <mxGeometry relative="1" as="geometry">
            <Array as="points">
              <mxPoint x="50" y="620" />
              <mxPoint x="50" y="360" />
            </Array>
          </mxGeometry>
        </mxCell>
        <mxCell id="yS0SOiaStTAIh2akFQd7-14" value="print(f&quot;DEBUG: &#39;op&#39; es: {op} &quot;)&lt;br style=&quot;border-color: var(--border-color); padding: 0px; margin: 0px; text-align: left;&quot;&gt;&lt;span style=&quot;text-align: left;&quot;&gt;nro= float(input(&quot;Ingresar otro numero: &quot;))&lt;/span&gt;" style="rounded=1;whiteSpace=wrap;html=1;" vertex="1" parent="1">
          <mxGeometry x="120" y="590" width="250" height="60" as="geometry" />
        </mxCell>
        <mxCell id="yS0SOiaStTAIh2akFQd7-16" style="edgeStyle=orthogonalEdgeStyle;rounded=0;orthogonalLoop=1;jettySize=auto;html=1;entryX=0.5;entryY=0;entryDx=0;entryDy=0;" edge="1" parent="1" source="yS0SOiaStTAIh2akFQd7-15" target="yS0SOiaStTAIh2akFQd7-17">
          <mxGeometry relative="1" as="geometry">
            <mxPoint x="700" y="670" as="targetPoint" />
            <Array as="points">
              <mxPoint x="680" y="630" />
            </Array>
          </mxGeometry>
        </mxCell>
        <mxCell id="yS0SOiaStTAIh2akFQd7-22" style="edgeStyle=orthogonalEdgeStyle;rounded=0;orthogonalLoop=1;jettySize=auto;html=1;" edge="1" parent="1" source="yS0SOiaStTAIh2akFQd7-15" target="yS0SOiaStTAIh2akFQd7-23">
          <mxGeometry relative="1" as="geometry">
            <mxPoint x="450" y="680" as="targetPoint" />
          </mxGeometry>
        </mxCell>
        <mxCell id="yS0SOiaStTAIh2akFQd7-15" value="&lt;font style=&quot;vertical-align: inherit;&quot;&gt;&lt;font style=&quot;vertical-align: inherit;&quot;&gt;&quot;+&quot;&lt;/font&gt;&lt;/font&gt;" style="rhombus;whiteSpace=wrap;html=1;" vertex="1" parent="1">
          <mxGeometry x="540" y="590" width="80" height="80" as="geometry" />
        </mxCell>
        <mxCell id="yS0SOiaStTAIh2akFQd7-19" style="edgeStyle=orthogonalEdgeStyle;rounded=0;orthogonalLoop=1;jettySize=auto;html=1;entryX=0.5;entryY=0;entryDx=0;entryDy=0;" edge="1" parent="1" source="yS0SOiaStTAIh2akFQd7-17" target="yS0SOiaStTAIh2akFQd7-18">
          <mxGeometry relative="1" as="geometry" />
        </mxCell>
        <mxCell id="yS0SOiaStTAIh2akFQd7-25" style="edgeStyle=orthogonalEdgeStyle;rounded=0;orthogonalLoop=1;jettySize=auto;html=1;entryX=0.5;entryY=0;entryDx=0;entryDy=0;" edge="1" parent="1" source="yS0SOiaStTAIh2akFQd7-17" target="yS0SOiaStTAIh2akFQd7-24">
          <mxGeometry relative="1" as="geometry">
            <Array as="points">
              <mxPoint x="570" y="730" />
            </Array>
          </mxGeometry>
        </mxCell>
        <mxCell id="yS0SOiaStTAIh2akFQd7-17" value="&lt;font style=&quot;vertical-align: inherit;&quot;&gt;&lt;font style=&quot;vertical-align: inherit;&quot;&gt;&quot;-&quot;&lt;/font&gt;&lt;/font&gt;" style="rhombus;whiteSpace=wrap;html=1;" vertex="1" parent="1">
          <mxGeometry x="640" y="690" width="80" height="80" as="geometry" />
        </mxCell>
        <mxCell id="yS0SOiaStTAIh2akFQd7-20" style="edgeStyle=orthogonalEdgeStyle;rounded=0;orthogonalLoop=1;jettySize=auto;html=1;entryX=0.5;entryY=0;entryDx=0;entryDy=0;" edge="1" parent="1" source="yS0SOiaStTAIh2akFQd7-18" target="yS0SOiaStTAIh2akFQd7-21">
          <mxGeometry relative="1" as="geometry">
            <mxPoint x="870" y="880" as="targetPoint" />
          </mxGeometry>
        </mxCell>
        <mxCell id="yS0SOiaStTAIh2akFQd7-26" style="edgeStyle=orthogonalEdgeStyle;rounded=0;orthogonalLoop=1;jettySize=auto;html=1;" edge="1" parent="1" source="yS0SOiaStTAIh2akFQd7-18">
          <mxGeometry relative="1" as="geometry">
            <mxPoint x="670" y="880" as="targetPoint" />
          </mxGeometry>
        </mxCell>
        <mxCell id="yS0SOiaStTAIh2akFQd7-18" value="&lt;font style=&quot;vertical-align: inherit;&quot;&gt;&lt;font style=&quot;vertical-align: inherit;&quot;&gt;&quot;*&quot;&lt;/font&gt;&lt;/font&gt;" style="rhombus;whiteSpace=wrap;html=1;" vertex="1" parent="1">
          <mxGeometry x="740" y="780" width="80" height="80" as="geometry" />
        </mxCell>
        <mxCell id="yS0SOiaStTAIh2akFQd7-28" style="edgeStyle=orthogonalEdgeStyle;rounded=0;orthogonalLoop=1;jettySize=auto;html=1;" edge="1" parent="1" source="yS0SOiaStTAIh2akFQd7-21">
          <mxGeometry relative="1" as="geometry">
            <mxPoint x="760" y="980" as="targetPoint" />
          </mxGeometry>
        </mxCell>
        <mxCell id="yS0SOiaStTAIh2akFQd7-30" style="edgeStyle=orthogonalEdgeStyle;rounded=0;orthogonalLoop=1;jettySize=auto;html=1;entryX=0.5;entryY=0;entryDx=0;entryDy=0;" edge="1" parent="1" source="yS0SOiaStTAIh2akFQd7-21" target="BesxyIzHfs_psjnbDBuM-5">
          <mxGeometry relative="1" as="geometry">
            <mxPoint x="1220" y="980" as="targetPoint" />
            <Array as="points">
              <mxPoint x="1090" y="920" />
            </Array>
          </mxGeometry>
        </mxCell>
        <mxCell id="yS0SOiaStTAIh2akFQd7-21" value="&lt;font style=&quot;vertical-align: inherit;&quot;&gt;&lt;font style=&quot;vertical-align: inherit;&quot;&gt;&quot;/&quot;&lt;/font&gt;&lt;/font&gt;" style="rhombus;whiteSpace=wrap;html=1;" vertex="1" parent="1">
          <mxGeometry x="880" y="880" width="80" height="80" as="geometry" />
        </mxCell>
        <mxCell id="GSZzZ93R67FNVeHR2V8e-14" style="edgeStyle=orthogonalEdgeStyle;rounded=0;orthogonalLoop=1;jettySize=auto;html=1;entryX=0;entryY=0.5;entryDx=0;entryDy=0;" edge="1" parent="1" source="yS0SOiaStTAIh2akFQd7-23" target="yS0SOiaStTAIh2akFQd7-5">
          <mxGeometry relative="1" as="geometry">
            <mxPoint x="270" y="360" as="targetPoint" />
            <Array as="points">
              <mxPoint x="50" y="710" />
              <mxPoint x="50" y="360" />
            </Array>
          </mxGeometry>
        </mxCell>
        <mxCell id="yS0SOiaStTAIh2akFQd7-23" value="resultado += numero" style="rounded=1;whiteSpace=wrap;html=1;" vertex="1" parent="1">
          <mxGeometry x="400" y="680" width="120" height="60" as="geometry" />
        </mxCell>
        <mxCell id="GSZzZ93R67FNVeHR2V8e-15" style="edgeStyle=orthogonalEdgeStyle;rounded=0;orthogonalLoop=1;jettySize=auto;html=1;entryX=0;entryY=0.5;entryDx=0;entryDy=0;" edge="1" parent="1" source="yS0SOiaStTAIh2akFQd7-24" target="yS0SOiaStTAIh2akFQd7-5">
          <mxGeometry relative="1" as="geometry">
            <Array as="points">
              <mxPoint x="50" y="820" />
              <mxPoint x="50" y="360" />
            </Array>
          </mxGeometry>
        </mxCell>
        <mxCell id="yS0SOiaStTAIh2akFQd7-24" value="resultado -= numero" style="rounded=1;whiteSpace=wrap;html=1;" vertex="1" parent="1">
          <mxGeometry x="510" y="790" width="120" height="60" as="geometry" />
        </mxCell>
        <mxCell id="GSZzZ93R67FNVeHR2V8e-16" style="edgeStyle=orthogonalEdgeStyle;rounded=0;orthogonalLoop=1;jettySize=auto;html=1;entryX=0;entryY=0.5;entryDx=0;entryDy=0;" edge="1" parent="1" source="yS0SOiaStTAIh2akFQd7-27" target="yS0SOiaStTAIh2akFQd7-5">
          <mxGeometry relative="1" as="geometry">
            <Array as="points">
              <mxPoint x="50" y="910" />
              <mxPoint x="50" y="360" />
            </Array>
          </mxGeometry>
        </mxCell>
        <mxCell id="yS0SOiaStTAIh2akFQd7-27" value="resultado *= numero" style="rounded=1;whiteSpace=wrap;html=1;" vertex="1" parent="1">
          <mxGeometry x="610" y="880" width="120" height="60" as="geometry" />
        </mxCell>
        <mxCell id="GSZzZ93R67FNVeHR2V8e-23" style="edgeStyle=orthogonalEdgeStyle;rounded=0;orthogonalLoop=1;jettySize=auto;html=1;entryX=0;entryY=0.5;entryDx=0;entryDy=0;" edge="1" parent="1" source="yS0SOiaStTAIh2akFQd7-29" target="yS0SOiaStTAIh2akFQd7-5">
          <mxGeometry relative="1" as="geometry">
            <Array as="points">
              <mxPoint x="850" y="1270" />
              <mxPoint x="50" y="1270" />
              <mxPoint x="50" y="360" />
            </Array>
          </mxGeometry>
        </mxCell>
        <mxCell id="yS0SOiaStTAIh2akFQd7-29" value="resultado&amp;nbsp; /= numero" style="rounded=1;whiteSpace=wrap;html=1;" vertex="1" parent="1">
          <mxGeometry x="790" y="1100" width="120" height="60" as="geometry" />
        </mxCell>
        <mxCell id="yS0SOiaStTAIh2akFQd7-34" style="edgeStyle=orthogonalEdgeStyle;rounded=0;orthogonalLoop=1;jettySize=auto;html=1;" edge="1" parent="1">
          <mxGeometry relative="1" as="geometry">
            <mxPoint x="850" y="1100" as="targetPoint" />
            <mxPoint x="800" y="1020" as="sourcePoint" />
          </mxGeometry>
        </mxCell>
        <mxCell id="yS0SOiaStTAIh2akFQd7-36" style="edgeStyle=orthogonalEdgeStyle;rounded=0;orthogonalLoop=1;jettySize=auto;html=1;entryX=0.5;entryY=0;entryDx=0;entryDy=0;" edge="1" parent="1" target="yS0SOiaStTAIh2akFQd7-35">
          <mxGeometry relative="1" as="geometry">
            <Array as="points">
              <mxPoint x="670" y="1020" />
            </Array>
            <mxPoint x="720" y="1020" as="sourcePoint" />
          </mxGeometry>
        </mxCell>
        <mxCell id="BesxyIzHfs_psjnbDBuM-8" style="edgeStyle=orthogonalEdgeStyle;rounded=0;orthogonalLoop=1;jettySize=auto;html=1;" edge="1" parent="1" source="yS0SOiaStTAIh2akFQd7-35">
          <mxGeometry relative="1" as="geometry">
            <mxPoint x="50" y="761.578947368421" as="targetPoint" />
          </mxGeometry>
        </mxCell>
        <mxCell id="yS0SOiaStTAIh2akFQd7-35" value="&quot;Operación no realizada, el divisor no puede ser 0&quot;" style="rounded=1;whiteSpace=wrap;html=1;" vertex="1" parent="1">
          <mxGeometry x="610" y="1100" width="120" height="60" as="geometry" />
        </mxCell>
        <mxCell id="GSZzZ93R67FNVeHR2V8e-1" value="True" style="text;html=1;strokeColor=none;fillColor=none;align=center;verticalAlign=middle;whiteSpace=wrap;rounded=0;" vertex="1" parent="1">
          <mxGeometry x="230" y="460" width="60" height="30" as="geometry" />
        </mxCell>
        <mxCell id="GSZzZ93R67FNVeHR2V8e-2" value="False" style="text;html=1;strokeColor=none;fillColor=none;align=center;verticalAlign=middle;whiteSpace=wrap;rounded=0;" vertex="1" parent="1">
          <mxGeometry x="490" y="460" width="60" height="30" as="geometry" />
        </mxCell>
        <mxCell id="GSZzZ93R67FNVeHR2V8e-5" value="False" style="text;html=1;strokeColor=none;fillColor=none;align=center;verticalAlign=middle;whiteSpace=wrap;rounded=0;" vertex="1" parent="1">
          <mxGeometry x="630" y="585" width="60" height="30" as="geometry" />
        </mxCell>
        <mxCell id="GSZzZ93R67FNVeHR2V8e-6" value="False" style="text;html=1;strokeColor=none;fillColor=none;align=center;verticalAlign=middle;whiteSpace=wrap;rounded=0;" vertex="1" parent="1">
          <mxGeometry x="720" y="680" width="60" height="30" as="geometry" />
        </mxCell>
        <mxCell id="GSZzZ93R67FNVeHR2V8e-7" value="False" style="text;html=1;strokeColor=none;fillColor=none;align=center;verticalAlign=middle;whiteSpace=wrap;rounded=0;" vertex="1" parent="1">
          <mxGeometry x="820" y="780" width="60" height="30" as="geometry" />
        </mxCell>
        <mxCell id="GSZzZ93R67FNVeHR2V8e-8" value="False" style="text;html=1;strokeColor=none;fillColor=none;align=center;verticalAlign=middle;whiteSpace=wrap;rounded=0;" vertex="1" parent="1">
          <mxGeometry x="980" y="880" width="60" height="30" as="geometry" />
        </mxCell>
        <mxCell id="GSZzZ93R67FNVeHR2V8e-9" value="True" style="text;html=1;strokeColor=none;fillColor=none;align=center;verticalAlign=middle;whiteSpace=wrap;rounded=0;" vertex="1" parent="1">
          <mxGeometry x="480" y="600" width="60" height="30" as="geometry" />
        </mxCell>
        <mxCell id="GSZzZ93R67FNVeHR2V8e-10" value="True" style="text;html=1;strokeColor=none;fillColor=none;align=center;verticalAlign=middle;whiteSpace=wrap;rounded=0;" vertex="1" parent="1">
          <mxGeometry x="590" y="690" width="60" height="30" as="geometry" />
        </mxCell>
        <mxCell id="GSZzZ93R67FNVeHR2V8e-11" value="True" style="text;html=1;strokeColor=none;fillColor=none;align=center;verticalAlign=middle;whiteSpace=wrap;rounded=0;" vertex="1" parent="1">
          <mxGeometry x="690" y="780" width="60" height="30" as="geometry" />
        </mxCell>
        <mxCell id="GSZzZ93R67FNVeHR2V8e-12" value="True" style="text;html=1;strokeColor=none;fillColor=none;align=center;verticalAlign=middle;whiteSpace=wrap;rounded=0;" vertex="1" parent="1">
          <mxGeometry x="780" y="880" width="60" height="30" as="geometry" />
        </mxCell>
        <mxCell id="GSZzZ93R67FNVeHR2V8e-18" value="False" style="text;html=1;strokeColor=none;fillColor=none;align=center;verticalAlign=middle;whiteSpace=wrap;rounded=0;" vertex="1" parent="1">
          <mxGeometry x="800" y="990" width="60" height="30" as="geometry" />
        </mxCell>
        <mxCell id="GSZzZ93R67FNVeHR2V8e-19" value="True" style="text;html=1;strokeColor=none;fillColor=none;align=center;verticalAlign=middle;whiteSpace=wrap;rounded=0;" vertex="1" parent="1">
          <mxGeometry x="670" y="990" width="60" height="30" as="geometry" />
        </mxCell>
        <mxCell id="GSZzZ93R67FNVeHR2V8e-22" value="if== 0" style="rhombus;whiteSpace=wrap;html=1;" vertex="1" parent="1">
          <mxGeometry x="720" y="980" width="80" height="80" as="geometry" />
        </mxCell>
        <mxCell id="GSZzZ93R67FNVeHR2V8e-26" value="Fin" style="ellipse;whiteSpace=wrap;html=1;" vertex="1" parent="1">
          <mxGeometry x="1030" y="1220" width="120" height="80" as="geometry" />
        </mxCell>
        <mxCell id="x3_hsHJU74mZ54-DLy5c-2" value="" style="edgeStyle=orthogonalEdgeStyle;rounded=0;orthogonalLoop=1;jettySize=auto;html=1;" edge="1" parent="1" source="BesxyIzHfs_psjnbDBuM-5" target="x3_hsHJU74mZ54-DLy5c-1">
          <mxGeometry relative="1" as="geometry" />
        </mxCell>
        <mxCell id="BesxyIzHfs_psjnbDBuM-5" value="&quot;=&quot;" style="rounded=1;whiteSpace=wrap;html=1;" vertex="1" parent="1">
          <mxGeometry x="1030" y="980" width="120" height="60" as="geometry" />
        </mxCell>
        <mxCell id="x3_hsHJU74mZ54-DLy5c-3" value="" style="edgeStyle=orthogonalEdgeStyle;rounded=0;orthogonalLoop=1;jettySize=auto;html=1;" edge="1" parent="1" source="x3_hsHJU74mZ54-DLy5c-1" target="GSZzZ93R67FNVeHR2V8e-26">
          <mxGeometry relative="1" as="geometry" />
        </mxCell>
        <mxCell id="x3_hsHJU74mZ54-DLy5c-1" value="print: resultado" style="rounded=1;whiteSpace=wrap;html=1;" vertex="1" parent="1">
          <mxGeometry x="1030" y="1100" width="120" height="60" as="geometry" />
        </mxCell>
      </root>
    </mxGraphModel>
  </diagram>
</mxfile>
